<?xml version="1.0" encoding="utf-8"?>
<!-- Generator: Adobe Illustrator 27.5.0, SVG Export Plug-In . SVG Version: 6.00 Build 0)  -->
<svg version="1.1" xmlns="http://www.w3.org/2000/svg" xmlns:xlink="http://www.w3.org/1999/xlink" x="0px" y="0px"
	 viewBox="0 0 3710 3710" style="enable-background:new 0 0 3710 3710;" xml:space="preserve">
<g id="Background">
	<g>
		<g>
			<rect style="fill:#FFFFFF;" width="3710" height="3710"/>
		</g>
	</g>
</g>
<g id="Illustration">
	<g>
		<linearGradient id="SVGID_1_" gradientUnits="userSpaceOnUse" x1="3569.4978" y1="4025.7253" x2="1128.6875" y2="994.392">
			<stop  offset="0" style="stop-color:#DAE3FE"/>
			<stop  offset="1" style="stop-color:#E9EFFD"/>
		</linearGradient>
		<path style="fill:url(#SVGID_1_);" d="M2898.015,2830.277c-56.064,59.022-109.112,97.085-151.024,127.157
			c-492.667,353.494-1075.621,250.452-1199.516,225.288c-182.953-37.159-536.598-108.986-792.276-409.659
			c-386.82-454.893-326.587-1171.564-26.543-1644.648c54.883-86.535,344.789-566.826,934.023-643.849
			c356.598-46.614,772.277,47.401,1073.3,299.598C3367.854,1313.55,3322.871,2383.002,2898.015,2830.277z"/>
		<g>
			<path style="fill:#BDD0FB;" d="M1073.494,2368.99c0,0,108.493-210.708-15.243-406.065
				c-114.805-181.259-412.413-598.128-401.325-842.447c0.492-10.824-20.039-6.06-26.785,6.24
				c-72.362,131.942-224.612,460.423-145.472,769.281C586.723,2294.29,1073.494,2368.99,1073.494,2368.99z"/>
			<path style="opacity:0.45;fill:#FFFFFF;" d="M616.836,1349.882c-14.77,44.243-22.107,90.607-24.723,136.882
				c-2.565,46.33,0.475,92.854,8.794,138.323c4.124,22.751,9.881,45.166,16.669,67.23l5.389,16.458
				c1.906,5.448,4.024,10.821,6.023,16.233l3.024,8.11l3.357,7.98c2.256,5.312,4.432,10.658,6.752,15.94l7.408,15.649
				c1.256,2.597,2.419,5.24,3.751,7.8l4.05,7.652l8.12,15.291l8.777,14.928l4.386,7.464c1.512,2.458,3.134,4.848,4.681,7.285
				l9.383,14.558c6.419,9.645,13.077,19.228,19.68,28.792c26.654,38.146,54.331,75.574,82.894,112.342
				c14.259,18.402,28.786,36.603,43.471,54.687c14.592,18.162,29.346,36.204,44.171,54.214c14.814,18.018,29.681,36.015,44.361,54.2
				c14.631,18.22,29.255,36.504,42.875,55.595c13.626,19.071,26.508,38.794,37.428,59.663c5.31,10.512,10.232,21.242,14.171,32.368
				c3.816,11.166,6.803,22.611,8.671,34.25c0.146,0.914-0.475,1.773-1.389,1.919c-0.889,0.143-1.727-0.443-1.906-1.316l-0.007-0.034
				c-2.303-11.33-5.687-22.392-9.861-33.145c-4.28-10.721-9.344-21.113-14.881-31.254c-11.336-20.162-24.61-39.223-38.665-57.693
				c-28.232-36.886-58.737-72.164-88.972-107.71c-60.853-70.781-119.507-143.874-172.942-220.71
				c-6.658-9.628-13.323-19.204-19.837-28.973l-9.589-14.849c-1.588-2.481-3.216-4.937-4.744-7.456l-4.429-7.651l-8.854-15.302
				l-8.189-15.671l-4.08-7.843c-1.342-2.623-2.514-5.331-3.779-7.992l-7.456-16.034c-18.922-43.2-32.466-88.726-40.208-135.18
				c-3.698-23.255-6.059-46.702-6.977-70.195c-0.903-23.494-0.235-47.023,1.804-70.401c2.063-23.381,5.768-46.581,10.723-69.463
				c5.075-22.846,11.328-45.487,20.291-67.097c0.044-0.105,0.165-0.156,0.27-0.112
				C616.824,1349.655,616.87,1349.78,616.836,1349.882z"/>
		</g>
		<g>
			<path style="fill:#91B3FA;" d="M500.621,521.761c-7.475-13.685,11.967-23.527,28.078-14.3
				c163.609,93.692,572.689,376.726,632.145,891.362c74.595,645.688,314.736,874.793,572.602,1011.141
				c0,0-318.512-58.096-572.855-290.246C536.119,1549.737,633.523,765.089,500.621,521.761z"/>
			<path style="opacity:0.47;fill:#FFFFFF;" d="M666.834,716.245c22.297,24.106,41.74,50.172,60.196,77.018
				c4.541,6.751,9.324,13.357,13.671,20.235l13.081,20.617l6.534,10.32l6.163,10.536l12.329,21.083
				c32.044,56.712,59.537,115.897,83.896,176.304l17.634,45.577c5.373,15.372,10.427,30.857,15.656,46.285l7.781,23.167
				c2.379,7.787,4.566,15.632,6.858,23.446l13.604,46.941c1.195,3.897,2.197,7.843,3.127,11.807l2.899,11.866l5.797,23.736
				l5.797,23.74c1.944,7.912,3.949,15.812,5.399,23.828l9.541,47.927c3.181,15.989,6.42,32.007,9.298,47.702
				c23.548,126.369,66.545,248.637,119.802,365.714c6.585,14.684,13.616,29.164,20.533,43.697
				c7.159,14.417,14.248,28.869,21.713,43.134c14.785,28.602,30.282,56.837,46.354,84.74c16.024,27.931,32.729,55.474,50.107,82.568
				c8.657,13.569,17.567,26.967,26.598,40.264c8.993,13.257,18.268,26.589,27.655,39.195l0.147,0.197
				c3.819,5.128,2.757,12.38-2.37,16.198c-5.086,3.788-12.268,2.767-16.11-2.254c-20.109-26.303-38.467-53.007-56.348-80.367
				c-17.845-27.298-34.995-55.032-51.464-83.168c-16.422-28.162-32.055-56.781-47.084-85.712
				c-7.573-14.437-14.771-29.067-22.036-43.662c-7.025-14.715-14.161-29.376-20.852-44.251
				c-6.907-14.774-13.278-29.793-19.842-44.724c-6.252-15.069-12.604-30.096-18.405-45.35
				c-11.991-30.349-22.847-61.151-33.023-92.169l-7.426-23.336c-2.467-7.781-4.638-15.657-6.97-23.48
				c-4.758-15.621-8.741-31.471-12.991-47.24c-7.902-31.697-15.254-63.559-20.871-95.774l-17.435-95.359
				c-1.314-7.956-3.181-15.791-4.985-23.64l-5.38-23.558l-5.38-23.563l-2.69-11.783c-0.86-3.937-1.793-7.856-2.917-11.724
				l-12.757-46.618c-2.151-7.763-4.197-15.561-6.433-23.299l-7.352-23.018c-4.942-15.333-9.71-30.731-14.796-46.02l-16.418-45.464
				c-22.693-60.305-48.539-119.524-78.939-176.41l-11.549-21.248l-5.777-10.629l-6.145-10.41l-12.313-20.822
				c-4.093-6.951-8.616-13.623-12.904-20.452c-4.334-6.8-8.639-13.625-13.297-20.199c-4.623-6.597-9.018-13.377-13.833-19.832
				c-9.449-13.01-19.131-26.045-29.596-38.048l-0.099-0.114c-1.126-1.292-0.992-3.252,0.3-4.378
				C663.784,714.908,665.698,715.021,666.834,716.245z"/>
		</g>
		<g>
			<g>
				<path style="fill:#91B3FA;" d="M2391.086,2069.375c0,0-175.577-233.972-65.394-497.272
					c102.23-244.297,378.198-813.087,314.199-1108.095c-2.836-13.069,23.132-11.516,33.884,2.056
					c115.328,145.594,368.499,513.833,336.046,906.028C2967.97,1877.849,2391.086,2069.375,2391.086,2069.375z"/>
				<path style="opacity:0.45;fill:#FFFFFF;" d="M2736.531,734.601c15.374,24.443,27.664,50.701,38.562,77.452
					c10.759,26.82,20.064,54.285,27.408,82.31c7.313,28.026,12.99,56.519,16.748,85.294c3.739,28.777,5.713,57.796,6.021,86.859
					c0.182,58.129-6.887,116.327-20.982,172.806l-5.758,21.052c-0.989,3.5-1.856,7.038-2.947,10.507l-3.343,10.386l-6.725,20.762
					l-7.611,20.451l-3.809,10.226c-1.338,3.38-2.812,6.706-4.232,10.053l-8.599,20.052c-5.907,13.234-12.037,26.263-18.149,39.356
					c-49.138,104.544-105.401,205.613-164.818,304.322c-29.443,49.505-59.27,98.74-85.999,149.46
					c-13.284,25.381-25.497,51.319-35.124,78.197c-4.641,13.485-8.655,27.178-11.646,41.108
					c-2.857,13.948-4.687,28.108-5.148,42.371l-0.001,0.038c-0.037,1.141-0.992,2.036-2.133,1.999
					c-1.111-0.036-1.989-0.946-2.001-2.047c-0.133-14.549,1.136-29.093,3.472-43.469c2.494-14.353,6.265-28.427,10.553-42.316
					c8.974-27.651,20.572-54.314,33.21-80.338c12.627-26.046,26.644-51.318,40.68-76.514c14.104-25.163,28.475-50.136,42.776-75.124
					c14.316-24.98,28.54-49.984,42.542-75.101c14.131-25.043,28.046-50.194,41.593-75.533
					c27.156-50.647,53.098-101.912,77.646-153.84c6.058-13.004,12.178-26.042,17.996-39.104l8.408-19.654
					c1.378-3.285,2.858-6.529,4.19-9.832l3.794-9.989l7.594-19.98l6.719-20.285l3.346-10.149c1.092-3.39,1.96-6.847,2.952-10.267
					l5.78-20.573c1.731-6.908,3.273-13.863,4.921-20.792l2.436-10.404l2.003-10.494c1.314-7,2.781-13.976,3.974-20.999l3.155-21.141
					c3.699-28.252,6.071-56.717,6.386-85.254c0.724-57.048-5.195-114.289-17.893-170.136
					c-12.749-55.77-31.262-110.671-58.381-161.455c-0.074-0.12-0.037-0.278,0.084-0.352
					C2736.296,734.448,2736.453,734.493,2736.531,734.601z"/>
			</g>
			<g>
				<path style="fill:#BDD0FB;" d="M3081.207,732.175c-2.843-14.08-22.714-14.995-26.776-1.216
					c-39.265,133.199-153.166,479.245-323.831,661.427c-277.882,296.636-466.588,781.769-294.435,1036.584
					C2436.165,2428.971,3390.823,2266.255,3081.207,732.175z"/>
				<path style="opacity:0.43;fill:#FFFFFF;" d="M3054.833,922.595c-0.369,4.94-0.986,8.305-1.484,12.266l-1.714,11.443
					l-3.671,22.798l-8.274,45.387c-5.794,30.198-11.961,60.321-18.406,90.391c-13.112,60.083-27.681,119.86-43.719,179.253
					c-31.903,118.831-69.361,236.256-112.713,351.573c-43.367,115.292-93.22,228.359-151.696,337.03
					c-29.615,54.118-60.837,107.401-95.369,158.57c-34.944,50.856-71.824,100.439-112.631,146.643
					c-1.806,2.044-4.928,2.238-6.972,0.432c-1.948-1.721-2.187-4.674-0.645-6.714c74.055-97.439,136.494-202.685,192.058-311.299
					c55.372-108.772,103.57-221.144,147.112-335.313c43.4-114.248,81.772-230.454,116.642-347.757
					c17.217-58.713,33.827-117.638,49.22-176.9c7.8-29.605,15.329-59.287,22.488-89.057l10.408-44.723l5.052-22.38l2.398-11.193
					l2.044-10.465l0.25-1.279c0.514-2.637,3.069-4.357,5.705-3.841C3053.359,917.937,3055.016,920.17,3054.833,922.595z"/>
			</g>
		</g>
		<g>
			
				<linearGradient id="SVGID_00000047749528006976398410000010527452133899408772_" gradientUnits="userSpaceOnUse" x1="-304.413" y1="2504.1228" x2="-772.4446" y2="5173.1689" gradientTransform="matrix(1 0 0 1 1513.0023 0)">
				<stop  offset="0" style="stop-color:#09005D"/>
				<stop  offset="1" style="stop-color:#1A0F91"/>
			</linearGradient>
			<path style="fill:url(#SVGID_00000047749528006976398410000010527452133899408772_);" d="M1172.455,3131.472
				c-1.539,0-3.099-0.088-4.663-0.267c-22.182-2.546-38.097-22.592-35.545-44.779L1386.009,878.13
				c2.546-22.167,22.631-38.058,44.774-35.541c22.182,2.546,38.097,22.592,35.546,44.779l-253.762,2208.296
				C1210.198,3116.272,1192.719,3131.472,1172.455,3131.472z"/>
			
				<linearGradient id="SVGID_00000024702731415929962800000014771984101839673492_" gradientUnits="userSpaceOnUse" x1="2435.2681" y1="-1070.8566" x2="2136.0374" y2="-508.9683" gradientTransform="matrix(1 0 0 1 1513.0023 0)">
				<stop  offset="0" style="stop-color:#09005D"/>
				<stop  offset="1" style="stop-color:#1A0F91"/>
			</linearGradient>
			<path style="fill:url(#SVGID_00000024702731415929962800000014771984101839673492_);" d="M2567.407,3131.481
				c-18.5,0-35.191-12.781-39.41-31.593L2032.864,891.593c-4.881-21.783,8.819-43.407,30.606-48.292
				c21.738-4.847,43.402,8.813,48.293,30.606l495.127,2208.296c4.885,21.782-8.814,43.406-30.602,48.293
				C2573.314,3131.156,2570.338,3131.481,2567.407,3131.481z"/>
			
				<linearGradient id="SVGID_00000114766162323094197650000000104460340543285376_" gradientUnits="userSpaceOnUse" x1="2208.6992" y1="-1191.505" x2="1909.4688" y2="-629.6173" gradientTransform="matrix(1 0 0 1 1513.0023 0)">
				<stop  offset="0" style="stop-color:#09005D"/>
				<stop  offset="1" style="stop-color:#1A0F91"/>
			</linearGradient>
			<path style="fill:url(#SVGID_00000114766162323094197650000000104460340543285376_);" d="M1731.244,3131.472
				c-22.326,0-40.427-18.101-40.427-40.427V2001.213c0-22.325,18.101-40.427,40.427-40.427c22.325,0,40.427,18.102,40.427,40.427
				v1089.832C1771.671,3113.371,1753.569,3131.472,1731.244,3131.472z"/>
			
				<linearGradient id="SVGID_00000041295418071454558680000018444477776434862270_" gradientUnits="userSpaceOnUse" x1="1894.989" y1="2573.4236" x2="1638.9829" y2="10.0222">
				<stop  offset="0" style="stop-color:#09005D"/>
				<stop  offset="1" style="stop-color:#1A0F91"/>
			</linearGradient>
			<path style="fill:url(#SVGID_00000041295418071454558680000018444477776434862270_);" d="M922.195,635.691l142.135,1790.248
				c3.007,37.866,35.082,66.778,73.055,65.852l1484.488-36.209c43.278-1.056,75.708-40.009,68.901-82.761L2406.586,587.701
				c-5.627-35.349-36.516-61.098-72.301-60.269L991.851,558.513C950.778,559.465,918.944,594.737,922.195,635.691z"/>
			<path style="fill:#91B3FA;" d="M1046.455,607.793l1244.869-28.82c35.785-0.828,66.674,24.92,72.301,60.27l268.16,1684.466
				c6.806,42.751-25.624,81.704-68.901,82.76L1183.977,2440.1c-37.973,0.926-70.049-27.987-73.055-65.853L976.8,684.97
				C973.547,644.015,1005.382,608.743,1046.455,607.793z"/>
			<defs>
				
					<filter id="Adobe_OpacityMaskFilter" filterUnits="userSpaceOnUse" x="1078.014" y="680.108" width="1487.878" height="1672.097">
					<feFlood  style="flood-color:white;flood-opacity:1" result="back"/>
					<feBlend  in="SourceGraphic" in2="back" mode="normal"/>
				</filter>
			</defs>
			
				<mask maskUnits="userSpaceOnUse" x="1078.014" y="680.108" width="1487.878" height="1672.097" id="SVGID_00000142139260772399289320000014211438530219843760_">
				<g style="filter:url(#Adobe_OpacityMaskFilter);">
					<defs>
						
							<filter id="Adobe_OpacityMaskFilter_00000112601207223067473250000000896706981234161840_" filterUnits="userSpaceOnUse" x="1078.014" y="680.108" width="1487.878" height="1672.097">
							<feFlood  style="flood-color:white;flood-opacity:1" result="back"/>
							<feBlend  in="SourceGraphic" in2="back" mode="normal"/>
						</filter>
					</defs>
					
						<mask maskUnits="userSpaceOnUse" x="1078.014" y="680.108" width="1487.878" height="1672.097" id="SVGID_00000142139260772399289320000014211438530219843760_">
						<g style="filter:url(#Adobe_OpacityMaskFilter_00000112601207223067473250000000896706981234161840_);">
						</g>
					</mask>
					
						<linearGradient id="SVGID_00000163062140896484254770000012896217759180849083_" gradientUnits="userSpaceOnUse" x1="1823.3574" y1="1511.0973" x2="305.1104" y2="4631.938">
						<stop  offset="0" style="stop-color:#FFFFFF"/>
						<stop  offset="1" style="stop-color:#000000"/>
					</linearGradient>
					
						<path style="mask:url(#SVGID_00000142139260772399289320000014211438530219843760_);fill:url(#SVGID_00000163062140896484254770000012896217759180849083_);" d="
						M1140.799,706.018l1118.406-25.892c32.15-0.744,59.9,22.389,64.956,54.147l240.919,1513.345
						c6.115,38.408-23.021,73.404-61.902,74.353l-1238.827,30.216c-34.116,0.832-62.933-25.144-65.633-59.162L1078.22,775.355
						C1075.298,738.561,1103.898,706.872,1140.799,706.018z"/>
				</g>
			</mask>
			
				<linearGradient id="SVGID_00000024003038877112517160000014302947742929091722_" gradientUnits="userSpaceOnUse" x1="1823.3574" y1="1511.0973" x2="305.1104" y2="4631.938">
				<stop  offset="0" style="stop-color:#FFFFFF"/>
				<stop  offset="1" style="stop-color:#FFFFFF"/>
			</linearGradient>
			<path style="opacity:0.71;fill:url(#SVGID_00000024003038877112517160000014302947742929091722_);" d="M1140.799,706.018
				l1118.406-25.892c32.15-0.744,59.9,22.389,64.956,54.147l240.919,1513.345c6.115,38.408-23.021,73.404-61.902,74.353
				l-1238.827,30.216c-34.116,0.832-62.933-25.144-65.633-59.162L1078.22,775.355
				C1075.298,738.561,1103.898,706.872,1140.799,706.018z"/>
			<g>
				
					<linearGradient id="SVGID_00000177465113921895100230000000988237675427177636_" gradientUnits="userSpaceOnUse" x1="1775.7223" y1="1154.5256" x2="1882.1144" y2="2431.2419">
					<stop  offset="0" style="stop-color:#FF928E"/>
					<stop  offset="1" style="stop-color:#FE7062"/>
				</linearGradient>
				<path style="fill:url(#SVGID_00000177465113921895100230000000988237675427177636_);" d="M1999.409,2188.095
					c0,0-589.073,19.435-686.715-346.456c-78.474-294.062,156.481,4.077,429.698,185.343c21.441,14.225,43.843-16.648,23.664-32.612
					c-198.26-156.849-483.874-412.563-436.255-551.196c71.888-209.281,93.609-94.933,285.508,144.043
					c191.899,238.975,286.927,228.762,182.012,53.057c-104.915-175.706-399.975-331.029-382.026-451.211
					c17.949-120.181,127.465-282.492,166.166-360.965c38.699-78.472,412.311,129.406,411.628,284.145
					c-0.682,154.74-111.545,387.293-51.823,512.269c59.723,124.977,114.806-125.092,133.368-264.35
					c18.563-139.258,53.374-221.066,155.573-77.817c102.199,143.248,13.706,357.076-87.362,480.555
					c-101.068,123.48-122.09,229.188-67.704,172.622c54.386-56.566,207.287-244.361,220.513-334.616
					C2308.879,1510.649,2521.777,1857.147,1999.409,2188.095z"/>
				<path style="opacity:0.53;fill:#FFFFFF;" d="M1973.991,2167.848c-1.688-0.789-2.897-2.457-2.994-4.455
					c-22.989-451.007-264.485-1010.786-266.923-1016.384c-1.148-2.637,0.058-5.698,2.698-6.853c2.625-1.14,5.698,0.064,6.846,2.701
					c2.449,5.615,244.691,567.09,267.773,1020.015c0.149,2.865-2.06,5.311-4.932,5.46
					C1975.576,2168.377,1974.737,2168.197,1973.991,2167.848z"/>
			</g>
		</g>
		<g>
			
				<linearGradient id="SVGID_00000129888086083766363780000018283925454366355608_" gradientUnits="userSpaceOnUse" x1="-475.9452" y1="2307.0483" x2="-308.4372" y2="2307.0483" gradientTransform="matrix(-1 0 0 1 2669.0103 0)">
				<stop  offset="0" style="stop-color:#FEBBBA"/>
				<stop  offset="1" style="stop-color:#FF928E"/>
			</linearGradient>
			<path style="fill:url(#SVGID_00000129888086083766363780000018283925454366355608_);" d="M3084.665,2220.717
				c17.185,18.342,42.486,34.191,60.291,44.075c-26.589,32.867-62.569,65.781-110.2,97.996l-13.632,30.591l-43.677-52.348
				C2977.448,2341.031,3055.819,2302.03,3084.665,2220.717z"/>
			<g>
				<path style="fill:#91B3FA;" d="M2313.857,1545.705c0,0,113.933-220.056-80.514-329.025
					c-194.447-108.969-268.542,17.096-430.148-89.443C1803.195,1127.237,1888.199,1539.062,2313.857,1545.705z"/>
				
					<linearGradient id="SVGID_00000103267224595583125130000013197999192233499563_" gradientUnits="userSpaceOnUse" x1="-247.9372" y1="1035.2756" x2="-880.7869" y2="1750.4816" gradientTransform="matrix(-0.9966 -0.0819 -0.0819 0.9966 1760.3298 69.3106)">
					<stop  offset="0" style="stop-color:#E1473D"/>
					<stop  offset="1" style="stop-color:#E9605A"/>
				</linearGradient>
				<path style="fill:url(#SVGID_00000103267224595583125130000013197999192233499563_);" d="M2116.054,1156.31
					c8.915-0.007,59.283-12.017,71.942,15.842s-11.058,45.552-77.134,47.335c-66.076,1.783-76.726,46.572-23.912,81.355
					c52.814,34.783,20.038,72.732-41.42,48.447c-61.458-24.284-62.143-2.131-38.617,35.449
					c23.525,37.581-31.352,70.307-84.215,25.599c-48.57-41.077-137.179-148.242-162.51-287.688
					c-2.686-14.784,12.523-26.412,26.165-20.112C1832.21,1123.717,1932.77,1156.455,2116.054,1156.31z"/>
				<path style="fill:#FFFFFF;" d="M2297.476,1479.056c5.126-10.994,8.722-22.684,11.431-34.552
					c2.731-11.878,4.241-24.054,4.728-36.294c0.461-12.244-0.233-24.572-2.132-36.757c-1.879-12.186-4.966-24.244-9.354-35.843
					c-8.615-23.266-21.849-44.875-38.212-63.62c-16.283-18.861-35.32-35.224-55.762-49.307l-0.013-0.009
					c-3.944-2.717-9.345-1.723-12.062,2.222c-2.717,3.944-1.722,9.344,2.222,12.062c0.135,0.093,0.296,0.196,0.434,0.281
					c20.228,12.225,39.136,26.629,55.582,43.523c16.526,16.793,30.232,36.419,39.772,58.088
					c4.845,10.803,8.491,22.163,11.003,33.795c2.531,11.632,3.926,23.548,4.189,35.528c0.238,11.975-0.524,24.031-2.521,35.918
					C2304.803,1455.972,2301.935,1467.784,2297.476,1479.056z"/>
				<g>
					
						<linearGradient id="SVGID_00000115487857551445599240000000455616569215861939_" gradientUnits="userSpaceOnUse" x1="3342.9534" y1="1437.363" x2="3183.3638" y2="1696.6962">
						<stop  offset="0" style="stop-color:#4F52FF"/>
						<stop  offset="1" style="stop-color:#4042E2"/>
					</linearGradient>
					<path style="fill:url(#SVGID_00000115487857551445599240000000455616569215861939_);" d="M2559.247,1746.357
						c380.379,376.209,603.738,726.801,685.238,866.027c10.949,18.703-9.595,40.103-28.639,29.756
						c-415.925-225.983-653.32-527.122-783.207-754.163C2466.587,1805.57,2519.701,1765.553,2559.247,1746.357z"/>
					
						<linearGradient id="SVGID_00000114040612220680907790000000973122106984504746_" gradientUnits="userSpaceOnUse" x1="4329.6216" y1="25.1368" x2="3621.3728" y2="633.6324">
						<stop  offset="0" style="stop-color:#09005D"/>
						<stop  offset="1" style="stop-color:#1A0F91"/>
					</linearGradient>
					<path style="fill:url(#SVGID_00000114040612220680907790000000973122106984504746_);" d="M2321.585,1527.183
						c85.147,73.125,164.307,146.623,237.662,219.175c-39.546,19.195-92.66,59.213-126.607,141.62
						c-108.193-189.121-141.797-326.835-141.797-326.835C2291.523,1526.406,2321.585,1527.183,2321.585,1527.183z"/>
				</g>
			</g>
			
				<linearGradient id="SVGID_00000154422402847482845550000001242052946464584623_" gradientUnits="userSpaceOnUse" x1="-307.5178" y1="3168.8418" x2="-181.9128" y2="3168.8418" gradientTransform="matrix(-1 0 0 1 2669.0103 0)">
				<stop  offset="0" style="stop-color:#09005D"/>
				<stop  offset="1" style="stop-color:#1A0F91"/>
			</linearGradient>
			<path style="fill:url(#SVGID_00000154422402847482845550000001242052946464584623_);" d="M2850.925,3213.565
				c-0.015-0.935,0.048-1.883,0.288-2.837c14.147-56.086,84.362-91.02,84.362-91.02l27.823,2.181
				c15.997,49.434,13.942,79.751,11.373,93.255c-0.071,0.379-0.186,0.738-0.287,1.105
				C2951.533,3218.3,2904.291,3219.639,2850.925,3213.565z"/>
			
				<linearGradient id="SVGID_00000050659846013843748420000008397712307944699826_" gradientUnits="userSpaceOnUse" x1="2850.925" y1="3221.0164" x2="2974.4841" y2="3221.0164">
				<stop  offset="0" style="stop-color:#4F52FF"/>
				<stop  offset="1" style="stop-color:#4042E2"/>
			</linearGradient>
			<path style="fill:url(#SVGID_00000050659846013843748420000008397712307944699826_);" d="M2974.484,3216.249
				c-1.24,4.509-4.568,8.02-8.829,8.917c-32.649,6.866-84.542,1.34-106.33-1.508c-4.807-0.628-8.32-5.074-8.4-10.093
				C2904.291,3219.639,2951.533,3218.3,2974.484,3216.249z"/>
			
				<linearGradient id="SVGID_00000155843822595944046520000012210720755840112024_" gradientUnits="userSpaceOnUse" x1="-272.5885" y1="3025.8462" x2="-296.5812" y2="3235.2383" gradientTransform="matrix(-1 0 0 1 2669.0103 0)">
				<stop  offset="0" style="stop-color:#FEBBBA"/>
				<stop  offset="1" style="stop-color:#FF928E"/>
			</linearGradient>
			<path style="fill:url(#SVGID_00000155843822595944046520000012210720755840112024_);" d="M2974.586,3080.447l-11.784,56.728
				c-0.864,4.157-4.058,7.27-7.927,7.633c-4.736,0.445-11.477,0.705-18.257-0.291c-6.079-0.893-10.313-7.071-9.235-13.701
				l8.191-50.37H2974.586z"/>
			
				<linearGradient id="SVGID_00000042007820292932707570000001827317900997936300_" gradientUnits="userSpaceOnUse" x1="2603.6787" y1="3215.6201" x2="2785.2722" y2="3215.6201">
				<stop  offset="0" style="stop-color:#4F52FF"/>
				<stop  offset="1" style="stop-color:#4042E2"/>
			</linearGradient>
			<path style="fill:url(#SVGID_00000042007820292932707570000001827317900997936300_);" d="M2730.426,3215.68
				c30.729-0.86,46.623-4.479,54.84-7.838c0.019,3.055,0.001,6.165-0.097,9.386c-0.106,3.441-2.655,6.19-5.79,6.17l-168.721-1.089
				c-5.384-0.035-8.531-6.28-6.198-11.217C2626.581,3212.92,2682.924,3217.009,2730.426,3215.68z"/>
			
				<linearGradient id="SVGID_00000180364872462526469910000000842663939836725135_" gradientUnits="userSpaceOnUse" x1="-116.2552" y1="3172.1826" x2="64.5516" y2="3172.1826" gradientTransform="matrix(-1 0 0 1 2669.0103 0)">
				<stop  offset="0" style="stop-color:#09005D"/>
				<stop  offset="1" style="stop-color:#1A0F91"/>
			</linearGradient>
			<path style="fill:url(#SVGID_00000180364872462526469910000000842663939836725135_);" d="M2604.459,3211.092
				c0.204-0.43,0.378-0.868,0.668-1.272c14.9-20.82,52.851-62.278,127.842-80.26l35.975-1.135c0,0,16.019,27.843,16.322,79.417
				c-8.217,3.359-24.111,6.977-54.84,7.838C2682.924,3217.009,2626.581,3212.92,2604.459,3211.092z"/>
			
				<linearGradient id="SVGID_00000060018787333485158070000004524343370371323531_" gradientUnits="userSpaceOnUse" x1="-77.1501" y1="3048.24" x2="-101.1428" y2="3257.6318" gradientTransform="matrix(-1 0 0 1 2669.0103 0)">
				<stop  offset="0" style="stop-color:#FEBBBA"/>
				<stop  offset="1" style="stop-color:#FF928E"/>
			</linearGradient>
			<path style="fill:url(#SVGID_00000060018787333485158070000004524343370371323531_);" d="M2775.615,3073.904
				c-0.4,2.681-5.331,43.438-7.24,59.24c-0.454,3.755-3.174,6.661-6.603,7.071c-6.126,0.732-16.039,1.397-24.711-0.38
				c-4.678-0.959-8.065-5.453-8.065-10.679v-63.976L2775.615,3073.904z"/>
			
				<linearGradient id="SVGID_00000177442966336821219690000010902457267893104304_" gradientUnits="userSpaceOnUse" x1="3453.0012" y1="1947.0248" x2="3256.8391" y2="2213.0071">
				<stop  offset="0" style="stop-color:#09005D"/>
				<stop  offset="1" style="stop-color:#1A0F91"/>
			</linearGradient>
			<path style="fill:url(#SVGID_00000177442966336821219690000010902457267893104304_);" d="M2804.477,2330.125
				c0,0-86.77,329.756-85.201,744.721c0.029,7.566,5.341,14.095,12.744,15.655c10.91,2.298,26.947,5.026,40.223,4.654
				c7.087-0.199,13.012-5.455,14.204-12.444c12.166-71.348,81.987-473.29,121.768-538.544c0,0,26.173,357.987,17.807,543.713
				c-0.208,4.618,3.174,8.624,7.766,9.155c6.966,0.805,18.11,1.417,32.292-0.09c5.384-0.572,9.727-4.641,10.496-10
				c8.666-60.384,58.546-419.813,56.425-678.732c-0.12-14.601-38.613-78.087-38.613-78.087H2804.477z"/>
			
				<linearGradient id="SVGID_00000038407611531971157470000012138080263951552406_" gradientUnits="userSpaceOnUse" x1="19125.584" y1="-12102.5313" x2="18743.2344" y2="-11833.2236" gradientTransform="matrix(-1 0 0 1 1901.2418 0)">
				<stop  offset="0" style="stop-color:#FF928E"/>
				<stop  offset="1" style="stop-color:#FE7062"/>
			</linearGradient>
			<path style="fill:url(#SVGID_00000038407611531971157470000012138080263951552406_);" d="M2683.802,1931.039
				c14.082-17.652,26.419-36.574,36.739-56.07c14.413-27.231,25.543-57.04,29.482-87.789
				c97.464,16.945,246.073,36.203,308.94,44.123c20.613,2.596,39.467,12.759,53.051,28.48
				c53.871,62.342,172.082,233.023,32.943,405.01c-17.804-9.884-43.106-25.733-60.291-44.075
				c15.394-43.394,16.654-98.846-15.606-166.847c-1.102,5.39-2.465,10.726-4.121,15.977
				c-44.464,140.866-46.837,258.089-46.738,285.105c0.014,3.669-2.189,6.971-5.595,8.336c-58.52,23.45-171.169,9.493-208.982,3.858
				c-6.934-1.033-11.599-7.488-10.64-14.433c18.559-134.454-76.687-355.638-101.843-411.037
				C2689.329,1937.692,2686.827,1934.104,2683.802,1931.039z"/>
			
				<linearGradient id="SVGID_00000025434368225198054600000009270211131655753095_" gradientUnits="userSpaceOnUse" x1="-219.5839" y1="1671.1215" x2="-311.1929" y2="2067.0029" gradientTransform="matrix(-1 0 0 1 2669.0103 0)">
				<stop  offset="0" style="stop-color:#FEBBBA"/>
				<stop  offset="1" style="stop-color:#FF928E"/>
			</linearGradient>
			<path style="fill:url(#SVGID_00000025434368225198054600000009270211131655753095_);" d="M2957.816,1701.949l11.278,115.229
				c0,0-64.823,19.524-111.971-13.742l33.144-104.726L2957.816,1701.949z"/>
			<g>
				
					<linearGradient id="SVGID_00000062911073905912596500000016667899967566630591_" gradientUnits="userSpaceOnUse" x1="-1287.7422" y1="-965.7266" x2="-1450.2686" y2="-750.7175" gradientTransform="matrix(-0.6854 -0.7281 -0.7281 0.6854 1318.0114 1318.7853)">
					<stop  offset="0" style="stop-color:#FEBBBA"/>
					<stop  offset="1" style="stop-color:#FF928E"/>
				</linearGradient>
				<path style="fill:url(#SVGID_00000062911073905912596500000016667899967566630591_);" d="M2882.6,1570.615
					c-1.56,1.469-65.844,127.707-65.844,127.707l72.86,35.173l78.704-110.596C2968.32,1622.899,2908.718,1546.028,2882.6,1570.615z"
					/>
				
					<linearGradient id="SVGID_00000114042055095445111690000016203606470738509223_" gradientUnits="userSpaceOnUse" x1="-1411.8663" y1="-914.0922" x2="-1217.7263" y2="-914.0922" gradientTransform="matrix(-0.6854 -0.7281 -0.7281 0.6854 1318.0114 1318.7853)">
					<stop  offset="0" style="stop-color:#09005D"/>
					<stop  offset="1" style="stop-color:#1A0F91"/>
				</linearGradient>
				<path style="fill:url(#SVGID_00000114042055095445111690000016203606470738509223_);" d="M2936.082,1625.962
					c1.3,3.362,0.98,7.116-0.874,10.207l-36.339,60.576c-0.551,0.919-1.208,1.75-1.992,2.481
					c-4.325,4.026-19.126,15.737-30.568-0.207c-9.752-13.59-18.903-25.945-28.707-31.04c-5.726-2.976-12.771-0.599-15.678,5.162
					c-5.987,11.866-17.584,36.055-24.87,58.993c-1.826,5.749,1.141,11.922,6.732,14.186c14.753,5.977,43.912,16.787,69.787,20.358
					c4.25,0.587,8.458-1.207,10.988-4.672c11.132-15.25,42.508-57.869,53.217-68.536c9.949-9.911,28.31-6.174,36.584-3.797
					c3.14,0.902,6.485,0.468,9.284-1.218c8.395-5.056,23.043-17.647,9.642-38.965c-3.332-5.3-1.633-12.36,3.597-15.8
					c9.372-6.165,19.542-17.737,9.853-36.478c-9.809-18.971-27.324-20.674-39.254-19.216c-5.278,0.645-10.637-2.123-12.662-7.04
					c-0.901-2.187-2.681-4.051-5.997-4.724c-6.253-1.268-10.357-6.987-9.13-13.247c2.104-10.735,0.52-24.682-16.621-34.106
					c-31.437-17.284-58.974,10.879-65.976,34.654c-7.002,23.775,28.147,40.576,50.257,43.38
					C2923.594,1598.971,2932.499,1616.696,2936.082,1625.962z"/>
				
					<linearGradient id="SVGID_00000132775123904118010220000014987876248249811353_" gradientUnits="userSpaceOnUse" x1="-1525.7793" y1="-795.4561" x2="-1395.4202" y2="-929.2011" gradientTransform="matrix(-0.6854 -0.7281 -0.7281 0.6854 1318.0114 1318.7853)">
					<stop  offset="0" style="stop-color:#FEBBBA"/>
					<stop  offset="1" style="stop-color:#FF928E"/>
				</linearGradient>
				<path style="fill:url(#SVGID_00000132775123904118010220000014987876248249811353_);" d="M2924.128,1715.714
					c0,0,13.979-40.902,31.873-39.401c17.894,1.501,31.977,19.327,9.801,39.366
					C2938.217,1740.605,2924.128,1715.714,2924.128,1715.714z"/>
			</g>
			
				<linearGradient id="SVGID_00000113327494194647416530000008524772272515023281_" gradientUnits="userSpaceOnUse" x1="3205.916" y1="1353.3239" x2="3156.0439" y2="1599.3585">
				<stop  offset="0" style="stop-color:#E1473D"/>
				<stop  offset="1" style="stop-color:#E9605A"/>
			</linearGradient>
			<path style="fill:url(#SVGID_00000113327494194647416530000008524772272515023281_);" d="M3074.959,2043.335
				c23.586-64.548,15.03-142.492,14.94-143.272l-6.499,0.743c0.086,0.765,8.46,77.214-14.589,140.283L3074.959,2043.335z"/>
			
				<linearGradient id="SVGID_00000128480513953248522800000017374185527885208249_" gradientUnits="userSpaceOnUse" x1="2942.9937" y1="1886.8575" x2="2942.9937" y2="2196.0623">
				<stop  offset="0" style="stop-color:#4F52FF"/>
				<stop  offset="1" style="stop-color:#4042E2"/>
			</linearGradient>
			<path style="fill:url(#SVGID_00000128480513953248522800000017374185527885208249_);" d="M2911.404,2535.761
				c1.454,0,2.783-0.976,3.163-2.451c7.195-27.752,61.077-58.251,61.62-58.556c1.575-0.884,2.138-2.877,1.252-4.454
				c-0.885-1.575-2.869-2.139-4.454-1.253c-2.316,1.299-56.859,32.174-64.751,62.62c-0.454,1.749,0.597,3.535,2.345,3.987
				C2910.854,2535.727,2911.132,2535.761,2911.404,2535.761z"/>
			<g>
				
					<linearGradient id="SVGID_00000003814038313422304480000011230062533645953935_" gradientUnits="userSpaceOnUse" x1="16154.8525" y1="-11174.373" x2="15772.4932" y2="-10905.0586" gradientTransform="matrix(-0.9661 -0.2581 -0.2581 0.9661 1436.7734 173.8431)">
					<stop  offset="0" style="stop-color:#FF928E"/>
					<stop  offset="1" style="stop-color:#FE7062"/>
				</linearGradient>
				<path style="fill:url(#SVGID_00000003814038313422304480000011230062533645953935_);" d="M2428.736,1832.876
					c113.208,49.205,209.957-4.672,279.297-34.509c91.546-39.393,142.649,5.325,142.649,5.325l-121.772,132.371
					c-150.777,81.378-267.524,23.168-335.542-34.428C2400.113,1871.585,2414.705,1848.827,2428.736,1832.876z"/>
				
					<linearGradient id="SVGID_00000054235617798976618170000006142953408748645783_" gradientUnits="userSpaceOnUse" x1="-1386.5802" y1="1321.7213" x2="-1240.2935" y2="1321.7213" gradientTransform="matrix(-0.9661 -0.2581 -0.2581 0.9661 1436.7734 173.8431)">
					<stop  offset="0" style="stop-color:#FEBBBA"/>
					<stop  offset="1" style="stop-color:#FF928E"/>
				</linearGradient>
				<path style="fill:url(#SVGID_00000054235617798976618170000006142953408748645783_);" d="M2329.5,1676.214l29.085,79.723
					c29.558,44.627,33.893,61.182,70.15,76.94c-14.031,15.95-28.623,38.708-35.368,68.758
					c-41.359-50.807-54.982-119.494-54.982-119.494C2286.243,1688.76,2329.5,1676.214,2329.5,1676.214z"/>
			</g>
		</g>
		<g>
			
				<linearGradient id="SVGID_00000103252415452809565840000006860729938906864056_" gradientUnits="userSpaceOnUse" x1="1046.0225" y1="1434.6874" x2="1046.0225" y2="1584.3024">
				<stop  offset="0" style="stop-color:#FF928E"/>
				<stop  offset="1" style="stop-color:#FE7062"/>
			</linearGradient>
			<path style="fill:url(#SVGID_00000103252415452809565840000006860729938906864056_);" d="M956.312,3148.571
				c140.841-34.456,242.738-145.228,322.474-247.077c59.739-76.306,115.48-155.442,167.171-236.235
				c39.771-62.162,79.495-135.323,100.917-204.583c11.725-37.907,18.455-78.058,9.2-116.547
				c-17.165-71.39-65.705-103.185-147.437-107.507c-45.771-2.42-127.162,14.023-142.004-34.896
				c-12.957-42.706,10.64-88.186,20.96-129.632c3.518-14.128,7.056-28.433,6.54-42.9c-1.695-47.544-48.285-86.751-99.875-100.047
				c-106.966-27.568-219.431,64.675-289.441,127.23c-81.361,72.698-146.74,158.437-205.385,246.258
				c-99.041,148.314-167.152,319.984-167.797,493.84c-0.389,104.879,29.732,217.451,122.252,288.56
				C735.143,3147.485,852.104,3174.064,956.312,3148.571z M1348.74,2379.49c12.692-50.302,53.304-85.031,90.709-77.569
				c37.405,7.462,57.439,54.29,44.748,104.592c-12.692,50.302-53.304,85.031-90.709,77.569
				C1356.082,2476.619,1336.048,2429.792,1348.74,2379.49z"/>
			
				<linearGradient id="SVGID_00000137839780904379465920000015927080164941805738_" gradientUnits="userSpaceOnUse" x1="973.9618" y1="1939.6295" x2="827.6716" y2="769.3052">
				<stop  offset="0" style="stop-color:#FEBBBA"/>
				<stop  offset="1" style="stop-color:#FF928E"/>
			</linearGradient>
			<path style="fill:url(#SVGID_00000137839780904379465920000015927080164941805738_);" d="M969.38,3156.856
				c139.557-34.142,240.526-143.905,319.535-244.826c59.195-75.611,114.428-154.026,165.648-234.083
				c39.409-61.595,78.77-134.091,99.998-202.719c11.618-37.562,18.286-77.347,9.116-115.485
				c-17.009-70.74-65.106-102.245-146.093-106.527c-45.354-2.398-126.003,13.895-140.71-34.578
				c-12.839-42.317,10.543-87.383,20.769-128.451c3.486-13.999,6.992-28.174,6.481-42.509c-1.679-47.11-47.845-85.96-98.964-99.135
				c-105.991-27.317-217.432,64.086-286.804,126.071c-80.62,72.035-145.402,156.993-203.514,244.014
				c-98.139,146.962-165.629,317.068-166.268,489.34c-0.385,103.923,29.462,215.47,121.138,285.93
				C750.226,3155.781,866.12,3182.118,969.38,3156.856z M1358.232,2394.782c12.576-49.844,52.818-84.257,89.882-76.862
				c37.064,7.394,56.916,53.795,44.34,103.639c-12.576,49.844-52.818,84.256-89.882,76.862
				C1365.507,2491.027,1345.656,2444.626,1358.232,2394.782z"/>
			
				<linearGradient id="SVGID_00000128460932345887541200000010475823958491029403_" gradientUnits="userSpaceOnUse" x1="836.5553" y1="-3724.5085" x2="2143.1841" y2="-1867.0114" gradientTransform="matrix(-0.5343 0.8453 -0.8453 -0.5343 305.6434 -712.6379)">
				<stop  offset="0" style="stop-color:#FF928E"/>
				<stop  offset="1" style="stop-color:#FE7062"/>
			</linearGradient>
			<path style="fill:url(#SVGID_00000128460932345887541200000010475823958491029403_);" d="M1052.63,2144.449
				c-41.036-23.03-53.285-71.129-27.36-107.432c25.925-36.303,80.208-47.063,121.244-24.033
				c41.036,23.03,53.285,71.129,27.36,107.432C1147.949,2156.719,1093.666,2167.479,1052.63,2144.449z"/>
			
				<linearGradient id="SVGID_00000044862358524148156200000011600068651362532526_" gradientUnits="userSpaceOnUse" x1="4223.834" y1="-222.0719" x2="4170.1895" y2="67.0131" gradientTransform="matrix(0.489 0.8723 -0.8723 0.489 -1008.143 -1555.1271)">
				<stop  offset="0" style="stop-color:#FEBBBA"/>
				<stop  offset="1" style="stop-color:#FF928E"/>
			</linearGradient>
			<path style="fill:url(#SVGID_00000044862358524148156200000011600068651362532526_);" d="M1065.829,2122.672
				c-32.173-18.056-41.777-55.767-21.451-84.229s62.885-36.898,95.058-18.842c32.173,18.056,41.777,55.767,21.451,84.229
				C1140.561,2132.292,1098.002,2140.728,1065.829,2122.672z"/>
			
				<linearGradient id="SVGID_00000147193478419405661950000016426546165671098778_" gradientUnits="userSpaceOnUse" x1="5183.6611" y1="-1201.2673" x2="4882.7524" y2="-1115.7743" gradientTransform="matrix(0.0867 0.9962 -0.9962 0.0867 -687.202 -2586.3113)">
				<stop  offset="0" style="stop-color:#FF928E"/>
				<stop  offset="1" style="stop-color:#FE7062"/>
			</linearGradient>
			<path style="fill:url(#SVGID_00000147193478419405661950000016426546165671098778_);" d="M830.933,2326.261
				c-41.036-23.03-53.285-71.129-27.36-107.432c25.926-36.303,80.208-47.063,121.244-24.032
				c41.036,23.03,53.285,71.129,27.36,107.432C926.252,2338.532,871.969,2349.292,830.933,2326.261z"/>
			
				<ellipse transform="matrix(0.0077 -1 1 0.0077 -1389.3102 3121.0679)" style="fill:#91B3FA;" cx="877.876" cy="2260.529" rx="71.688" ry="80.94"/>
			
				<linearGradient id="SVGID_00000039112703714666939300000003337355097233064614_" gradientUnits="userSpaceOnUse" x1="5415.9893" y1="-1123.4728" x2="5066.6519" y2="-823.1077" gradientTransform="matrix(0.0867 0.9962 -0.9962 0.0867 -687.202 -2586.3113)">
				<stop  offset="0" style="stop-color:#FF928E"/>
				<stop  offset="1" style="stop-color:#FE7062"/>
			</linearGradient>
			<path style="fill:url(#SVGID_00000039112703714666939300000003337355097233064614_);" d="M670.863,2597.868
				c-41.036-23.03-53.285-71.129-27.36-107.432c25.926-36.303,80.208-47.063,121.244-24.032
				c41.036,23.03,53.285,71.129,27.36,107.432C766.182,2610.139,711.898,2620.898,670.863,2597.868z"/>
			
				<linearGradient id="SVGID_00000014629258645466541470000009491560423780794047_" gradientUnits="userSpaceOnUse" x1="4422.7134" y1="323.7522" x2="4378.0098" y2="857.2186" gradientTransform="matrix(0.489 0.8723 -0.8723 0.489 -1008.143 -1555.1271)">
				<stop  offset="0" style="stop-color:#4F52FF"/>
				<stop  offset="1" style="stop-color:#4042E2"/>
			</linearGradient>
			<path style="fill:url(#SVGID_00000014629258645466541470000009491560423780794047_);" d="M677.685,2587.604
				c-35.085-19.69-45.558-60.814-23.392-91.853c22.166-31.039,68.578-40.238,103.663-20.548
				c35.085,19.691,45.558,60.814,23.392,91.853C759.182,2598.095,712.771,2607.294,677.685,2587.604z"/>
			
				<linearGradient id="SVGID_00000001622375948158383840000008816606392991864995_" gradientUnits="userSpaceOnUse" x1="4813.8223" y1="-1515.0848" x2="4839.2749" y2="-938.1562" gradientTransform="matrix(0.0929 0.9957 -0.9957 0.0929 -978.2262 -1929.0229)">
				<stop  offset="0" style="stop-color:#FF928E"/>
				<stop  offset="1" style="stop-color:#FE7062"/>
			</linearGradient>
			<path style="fill:url(#SVGID_00000001622375948158383840000008816606392991864995_);" d="M606.447,2833.81
				c-41.036-23.03-53.285-71.129-27.36-107.432c25.925-36.303,80.208-47.063,121.244-24.032
				c41.036,23.03,53.285,71.129,27.36,107.432C701.766,2846.081,647.483,2856.84,606.447,2833.81z"/>
			
				<linearGradient id="SVGID_00000166673773481065077940000002949346349061352607_" gradientUnits="userSpaceOnUse" x1="4846.8779" y1="-1234.3994" x2="4730.2188" y2="-954.4181" gradientTransform="matrix(0.0929 0.9957 -0.9957 0.0929 -978.2262 -1929.0229)">
				<stop  offset="0" style="stop-color:#FF928E"/>
				<stop  offset="1" style="stop-color:#FE7062"/>
			</linearGradient>
			<path style="fill:url(#SVGID_00000166673773481065077940000002949346349061352607_);" d="M612.082,2821.186
				c-34-19.082-44.15-58.934-22.669-89.013s66.457-38.994,100.457-19.912s44.15,58.934,22.669,89.013
				C691.059,2831.353,646.082,2840.268,612.082,2821.186z"/>
			
				<linearGradient id="SVGID_00000103953432080990310780000012274033130325279123_" gradientUnits="userSpaceOnUse" x1="3220.9834" y1="10358.0313" x2="3194.3855" y2="10519.2822" gradientTransform="matrix(0.489 0.8723 -0.8723 0.489 -1008.143 -1555.1271)">
				<stop  offset="0" style="stop-color:#FF928E"/>
				<stop  offset="1" style="stop-color:#FE7062"/>
			</linearGradient>
			<path style="fill:url(#SVGID_00000103953432080990310780000012274033130325279123_);" d="M675.668,3056.812
				c-41.036-23.03-53.285-71.129-27.36-107.432c25.926-36.303,80.209-47.063,121.244-24.032s53.285,71.129,27.36,107.432
				C770.987,3069.083,716.704,3079.842,675.668,3056.812z"/>
			
				<ellipse transform="matrix(0.0077 -1 1 0.0077 -2274.9365 3687.0767)" style="fill:#91B3FA;" cx="720.244" cy="2989.752" rx="71.651" ry="80.899"/>
			
				<linearGradient id="SVGID_00000061449086625938679030000000359085987048832394_" gradientUnits="userSpaceOnUse" x1="4042.0698" y1="9231.1699" x2="4015.4707" y2="9392.4268" gradientTransform="matrix(0.0867 0.9962 -0.9962 0.0867 -687.202 -2586.3113)">
				<stop  offset="0" style="stop-color:#FF928E"/>
				<stop  offset="1" style="stop-color:#FE7062"/>
			</linearGradient>
			<path style="fill:url(#SVGID_00000061449086625938679030000000359085987048832394_);" d="M904.883,3111.852
				c-41.036-23.03-53.285-71.129-27.36-107.432c25.926-36.303,80.208-47.063,121.244-24.032
				c41.036,23.03,53.285,71.129,27.36,107.432C1000.202,3124.122,945.919,3134.882,904.883,3111.852z"/>
			
				<linearGradient id="SVGID_00000054956885622416950400000001473165699723399097_" gradientUnits="userSpaceOnUse" x1="5575.0732" y1="-1277.9329" x2="5903.6812" y2="-1028.7687" gradientTransform="matrix(0.0867 0.9962 -0.9962 0.0867 -687.202 -2586.3113)">
				<stop  offset="0" style="stop-color:#FF928E"/>
				<stop  offset="1" style="stop-color:#FE7062"/>
			</linearGradient>
			<path style="fill:url(#SVGID_00000054956885622416950400000001473165699723399097_);" d="M907.991,3104.874
				c-37.149-20.849-48.238-64.391-24.768-97.255c23.47-32.864,72.611-42.605,109.759-21.756
				c37.149,20.848,48.238,64.391,24.768,97.255C994.281,3115.982,945.14,3125.722,907.991,3104.874z"/>
			
				<linearGradient id="SVGID_00000009561256941779979140000004608374457771398566_" gradientUnits="userSpaceOnUse" x1="2340.4866" y1="3518.8899" x2="1758.6675" y2="4629.3325" gradientTransform="matrix(0.0765 0.9971 -0.9971 0.0765 -690.4598 -2558.3276)">
				<stop  offset="0" style="stop-color:#FF928E"/>
				<stop  offset="1" style="stop-color:#FE7062"/>
			</linearGradient>
			<path style="fill:url(#SVGID_00000009561256941779979140000004608374457771398566_);" d="M1295.097,2311.586l-104.555-88.831
				c-17.123-14.548-44.294-14.07-60.688,1.069l-24.373,22.507c-19.237,17.764-14.575,46.825,9.498,59.209l128.927,66.324
				c16.715,8.599,37.835,6.261,51.605-5.711l0,0C1312.773,2351.144,1312.585,2326.445,1295.097,2311.586z"/>
			
				<linearGradient id="SVGID_00000127739472215936525960000011218550733378371470_" gradientUnits="userSpaceOnUse" x1="2485.1938" y1="3594.7671" x2="1903.3699" y2="4705.2192" gradientTransform="matrix(0.0765 0.9971 -0.9971 0.0765 -690.4598 -2558.3276)">
				<stop  offset="0" style="stop-color:#FF928E"/>
				<stop  offset="1" style="stop-color:#FE7062"/>
			</linearGradient>
			<path style="fill:url(#SVGID_00000127739472215936525960000011218550733378371470_);" d="M1227.751,2400.374l-143.337-48.217
				c-20.683-6.958-43.981,0.411-54.971,17.387l-27.86,43.035c-16.868,26.055,3.684,58.695,37.604,59.722l171.197,5.182
				c19.007,0.575,36.35-9.491,43.326-25.149l0,0C1262.922,2431.659,1251.239,2408.275,1227.751,2400.374z"/>
			
				<linearGradient id="SVGID_00000006703932502248625810000007390092965197628804_" gradientUnits="userSpaceOnUse" x1="2634.0383" y1="3672.7834" x2="2052.2126" y2="4783.2388" gradientTransform="matrix(0.0765 0.9971 -0.9971 0.0765 -690.4598 -2558.3276)">
				<stop  offset="0" style="stop-color:#FF928E"/>
				<stop  offset="1" style="stop-color:#FE7062"/>
			</linearGradient>
			<path style="fill:url(#SVGID_00000006703932502248625810000007390092965197628804_);" d="M1251.579,2539.96
				c-6.327-9.779-15.715-17.834-29.786-15.879c-72.41,10.059-145.133,18.435-217.395,29.313c-9.719,1.463-20.842,2.231-29.935,5.623
				c1.108,39.383-2.133,79.971,1.73,119.193c0.187,19.116,24.469,30.271,42.187,19.383c38.973-21.131,75.157-45.92,112.527-69.134
				c39.951-24.817,80.204-49.262,120.304-73.891C1258.658,2549.994,1255.275,2545.672,1251.579,2539.96z"/>
			
				<linearGradient id="SVGID_00000065785712264488787030000009914464438848110003_" gradientUnits="userSpaceOnUse" x1="2684.3381" y1="3699.2422" x2="2102.5015" y2="4809.7183" gradientTransform="matrix(0.0765 0.9971 -0.9971 0.0765 -690.4598 -2558.3276)">
				<stop  offset="0" style="stop-color:#FF928E"/>
				<stop  offset="1" style="stop-color:#FE7062"/>
			</linearGradient>
			<path style="fill:url(#SVGID_00000065785712264488787030000009914464438848110003_);" d="M1277.353,2588.246
				c-43.195,36.538-164.518,131.976-225.336,179.642c-17.768,13.925-15.309,39.111,4.898,50.192l102.182,56.036
				c17.304,9.489,40.028,4.175,49.741-11.632l141.385-230.091c10.037-16.335,1.894-36.8-17.505-43.989l-17.245-6.391
				C1302.481,2577.199,1287.522,2579.644,1277.353,2588.246z"/>
		</g>
		<g>
			<g>
				
					<linearGradient id="SVGID_00000129912338078820086250000000633358552775473030_" gradientUnits="userSpaceOnUse" x1="1244.6389" y1="2688.6382" x2="2545.9014" y2="2925.7935" gradientTransform="matrix(0.9949 0.1008 -0.1008 0.9949 -135.1907 -68.8084)">
					<stop  offset="0" style="stop-color:#4F52FF"/>
					<stop  offset="1" style="stop-color:#4042E2"/>
				</linearGradient>
				<path style="fill:url(#SVGID_00000129912338078820086250000000633358552775473030_);" d="M2275.438,2906.12
					c29.597,9.869,52.201,29.397,67.079,56.861c3.872,7.147,7.104,14.712,8.715,22.68c1.043,5.156,1.397,10.432,1.398,15.693
					c0.014,66.201-53.465,111.309-110.743,133.173c-76.13,29.06-152.246,20.19-231.133,17.497
					c-80.851-2.76-161.704-5.518-242.531-8.934c-70.345-2.973-140.701-6.271-210.963-10.843
					c-40.704-2.548-81.41-5.078-122.089-7.979c-38.922-2.776-81.603-1.666-119.595-10.443
					c17.256-34.058,21.219-85.428,24.819-123.482c2.703-28.574,3.841-57.252,4.925-85.913c0.505-13.353-4.881-64.162,5.983-71.062
					c3.683-2.339,9.344-2.891,15.65-2.587c11.496,0.554,25.136,3.952,32.846,4.555c20.052,1.568,40.089,3.315,60.113,5.209
					c40.059,3.788,80.061,8.171,120.019,12.907c157.558,18.673,319.167,34.804,470.165,84.668
					c6.04,2.032,79.34,22.822,79.042,21.141c-3.181-17.941,12.669-33.543,28.618-42.353
					C2193.239,2897.308,2236.984,2893.298,2275.438,2906.12z"/>
				
					<linearGradient id="SVGID_00000070833826929515759660000013146339453922540460_" gradientUnits="userSpaceOnUse" x1="2491.2297" y1="2767.8772" x2="2793.7842" y2="2495.2456">
					<stop  offset="0" style="stop-color:#4F52FF"/>
					<stop  offset="1" style="stop-color:#4042E2"/>
				</linearGradient>
				<path style="fill:url(#SVGID_00000070833826929515759660000013146339453922540460_);" d="M2349.15,3036.918
					c-5.4,13.341-11.496,30.295-23.812,38.915c1.838-2.29,2.613-5.235,3.247-8.102c4.918-22.244,4.203-47.199-0.981-69.368
					c-7.341-31.394-27.975-51.186-55.001-66.502c-16.324-9.252-34.457-16.017-53.212-16.574
					c-18.755-0.557-38.193,5.65-51.181,19.191c-10.059,10.487-17.268,32.227-4.97,43.531c11.04,10.148,38.424,14.506,49.876,2.307
					c1.396-1.49,3.26-3.238,5.17-2.517c1.347,3.07-0.243,6.616-2.178,9.354c-6.343,8.978-16.554,14.715-27.236,17.313
					c-15.615,3.799-34.006,4.508-46.381-6.711c-9.912-8.986-14.936-21.699-14.302-35.025c1.863-39.17,36.046-64.651,72.784-68.799
					c23.645-2.67,47.554,1.72,70.465,8.147c37.428,10.499,71.836,31.257,79.427,71.741c0.859,4.582,1.718,9.163,2.577,13.745
					C2356.631,3004.579,2355.665,3020.823,2349.15,3036.918z"/>
				
					<linearGradient id="SVGID_00000018221347796611253670000000627036525278431137_" gradientUnits="userSpaceOnUse" x1="2212.4641" y1="2506.2778" x2="2006.3275" y2="2695.7903">
					<stop  offset="0" style="stop-color:#FF928E"/>
					<stop  offset="1" style="stop-color:#FE7062"/>
				</linearGradient>
				<path style="fill:url(#SVGID_00000018221347796611253670000000627036525278431137_);" d="M1821.582,2936.249
					c-2.964-17.772-8.875-36.263-17.088-54.191c-74.727-11.519-150.096-19.782-224.561-28.607
					c-8.026-0.951-16.055-1.877-24.085-2.797c2.668,9.247,5.412,18.598,8.539,28.123c22.054,72.897,0.184,153.12-13.324,228.302
					c-1.641,8.459-3.757,16.565-6.256,24.387c4.151,0.26,8.303,0.521,12.455,0.78c70.261,4.573,140.618,7.87,210.962,10.843
					c10.728,0.453,21.457,0.868,32.186,1.3C1822.832,3078.147,1831.369,3007.115,1821.582,2936.249z"/>
			</g>
			<g>
				
					<ellipse transform="matrix(0.1008 -0.9949 0.9949 0.1008 -1755.7174 4002.2483)" style="fill:#7D97F4;" cx="1336.332" cy="2972.452" rx="143.533" ry="24.556"/>
				<g>
					
						<linearGradient id="SVGID_00000155123926536360360730000003137576981436332462_" gradientUnits="userSpaceOnUse" x1="1732.2206" y1="2810.6138" x2="1601.968" y2="3016.7573" gradientTransform="matrix(0.9949 0.1008 -0.1008 0.9949 -135.1907 -68.8084)">
						<stop  offset="0" style="stop-color:#09005D"/>
						<stop  offset="1" style="stop-color:#1A0F91"/>
					</linearGradient>
					<path style="fill:url(#SVGID_00000155123926536360360730000003137576981436332462_);" d="M1266.106,2965.231
						c-2.82,27.819-9.539,49.922-15.007,49.368s-7.616-23.556-4.797-51.375c2.819-27.82,9.538-49.922,15.007-49.368
						C1266.778,2914.41,1268.925,2937.412,1266.106,2965.231z"/>
					
						<linearGradient id="SVGID_00000001645413021374162660000006770179709098367131_" gradientUnits="userSpaceOnUse" x1="1055.3174" y1="3349.9529" x2="1500.838" y2="2645.0999">
						<stop  offset="0" style="stop-color:#E1473D"/>
						<stop  offset="1" style="stop-color:#E9605A"/>
					</linearGradient>
					<path style="fill:url(#SVGID_00000001645413021374162660000006770179709098367131_);" d="M1179.146,2902.186
						c-9.493,1.2-18.519,3.187-26.593,5.826c-34.482,11.272-69.443,29.894-85.661,62.345c-7.717,15.441-10.534,32.773-14.736,49.523
						c-7.935,31.093-8.696,62.49-40.156,75.805c-37.229,15.758-76.376,28.035-114.334,41.967
						c-21.548,7.909-35.52,38.574-30.281,60.812c7.913,33.593,43.546,27.441,69.54,27.29c61.386-0.355,122.851-1.207,183.972,2.419
						c15.072,0.894,30.188,1.789,45.259,0.863c20.245-1.243,40.139-5.753,60.278-8.157c49.662-5.929,99.829,1.007,149.807,2.925
						c22.804,0.875,47.241,0.233,66.012-12.745c5.73-3.962,11.182-10.887,8.461-17.3c-1.19-2.804-3.72-4.783-6.214-6.532
						c-46.438-32.556-108.693-26.503-163.749-40.114c-13.547-3.349-27.108-8.125-37.84-17.044
						c-18.708-15.545-25.751-40.71-31.809-64.268c-2.74-10.655-5.501-21.682-3.738-32.543c6.776-41.723,52.809-18.888,74.524-41.263
						c15.133-15.593,10.401-51.26-4.605-65.653C1253.763,2903.786,1213.417,2897.854,1179.146,2902.186z"/>
					<path style="fill:#91B3FA;" d="M1328.808,2920.903l-65.541-6.643c9.46,32.501,4.505,66.136-10.19,100.539l62.789,6.363
						C1332.203,2988.962,1336.516,2955.542,1328.808,2920.903z"/>
				</g>
				<path style="fill:#BDD0FB;" d="M1261.309,2913.856c9.515,32.122,7.261,65.574-10.21,100.743l21.559,2.185
					c13.775-32.484,17.151-66.068,10.21-100.743L1261.309,2913.856z"/>
			</g>
		</g>
	</g>
</g>
</svg>
